<svg width="200" height="200" viewBox="0 0 200 200" fill="none" xmlns="http://www.w3.org/2000/svg">
<rect width="200" height="200" fill="#2A2B2C"/>
<path d="M37.9531 63H58.8125L80.8438 116.75H81.7813L103.812 63H124.672V143H108.266V90.9297H107.602L86.8984 142.609H75.7266L55.0234 90.7344H54.3594V143H37.9531V63Z" fill="#F24500"/>
<path d="M134.906 145.708C141.052 145.708 146.338 144.406 150.765 141.802C155.166 139.172 158.552 135.526 160.921 130.865C163.265 126.203 164.437 120.839 164.437 114.771C164.437 108.625 163.252 103.234 160.882 98.5989C158.486 93.9375 155.088 90.3047 150.687 87.7005C146.286 85.0703 141.052 83.7552 134.984 83.7552C129.75 83.7552 125.166 84.7057 121.234 86.6067C117.302 88.5078 114.19 91.177 111.898 94.6145C109.606 98.052 108.343 102.089 108.109 106.724H123.812C124.255 103.729 125.427 101.32 127.328 99.4974C129.203 97.6484 131.664 96.7239 134.71 96.7239C137.289 96.7239 139.541 97.427 141.468 98.8333C143.369 100.214 144.854 102.232 145.921 104.888C146.989 107.544 147.523 110.76 147.523 114.536C147.523 118.365 147.002 121.62 145.96 124.302C144.893 126.984 143.395 129.029 141.468 130.435C139.541 131.841 137.289 132.544 134.71 132.544C132.809 132.544 131.104 132.154 129.593 131.372C128.057 130.591 126.794 129.458 125.804 127.974C124.789 126.464 124.125 124.654 123.812 122.544H108.109C108.369 127.128 109.619 131.164 111.859 134.654C114.072 138.117 117.132 140.825 121.039 142.779C124.945 144.732 129.567 145.708 134.906 145.708Z" fill="#F24500"/>
</svg>
