<svg width="183" height="31" viewBox="0 0 183 31" fill="none" xmlns="http://www.w3.org/2000/svg">
<path d="M0.201705 30V8.18182H6.80682V12.1875H7.0483C7.50284 10.8617 8.26989 9.81534 9.34943 9.0483C10.429 8.28125 11.7169 7.89773 13.2131 7.89773C14.7282 7.89773 16.0256 8.28598 17.1051 9.0625C18.1847 9.83902 18.8712 10.8807 19.1648 12.1875H19.392C19.7992 10.8902 20.5947 9.85322 21.7784 9.0767C22.9621 8.29072 24.3589 7.89773 25.9688 7.89773C28.0331 7.89773 29.7093 8.56061 30.9972 9.88636C32.285 11.2027 32.929 13.0114 32.929 15.3125V30H25.983V16.9034C25.983 15.8144 25.7036 14.9858 25.1449 14.4176C24.5862 13.84 23.8617 13.5511 22.9716 13.5511C22.0152 13.5511 21.2623 13.8636 20.7131 14.4886C20.1733 15.1042 19.9034 15.9328 19.9034 16.9744V30H13.2273V16.8324C13.2273 15.8191 12.9527 15.0189 12.4034 14.4318C11.8542 13.8447 11.1297 13.5511 10.2301 13.5511C9.62405 13.5511 9.08902 13.6979 8.625 13.9915C8.16098 14.2756 7.7964 14.6828 7.53125 15.2131C7.27557 15.7434 7.14773 16.3684 7.14773 17.0881V30H0.201705ZM47.4176 30.4119C45.1259 30.4119 43.1563 29.9432 41.5085 29.0057C39.8703 28.0587 38.6061 26.7424 37.7159 25.0568C36.8352 23.3617 36.3949 21.3968 36.3949 19.1619C36.3949 16.9176 36.8352 14.9527 37.7159 13.267C38.6061 11.572 39.8703 10.2557 41.5085 9.31818C43.1563 8.37121 45.1259 7.89773 47.4176 7.89773C49.7093 7.89773 51.6742 8.37121 53.3125 9.31818C54.9602 10.2557 56.2244 11.572 57.1051 13.267C57.9953 14.9527 58.4403 16.9176 58.4403 19.1619C58.4403 21.3968 57.9953 23.3617 57.1051 25.0568C56.2244 26.7424 54.9602 28.0587 53.3125 29.0057C51.6742 29.9432 49.7093 30.4119 47.4176 30.4119ZM47.4602 25.1705C48.2936 25.1705 48.9991 24.9148 49.5767 24.4034C50.1544 23.892 50.5947 23.1818 50.8977 22.2727C51.2102 21.3636 51.3665 20.3125 51.3665 19.1193C51.3665 17.9072 51.2102 16.8466 50.8977 15.9375C50.5947 15.0284 50.1544 14.3182 49.5767 13.8068C48.9991 13.2955 48.2936 13.0398 47.4602 13.0398C46.5985 13.0398 45.8693 13.2955 45.2727 13.8068C44.6856 14.3182 44.2358 15.0284 43.9233 15.9375C43.6203 16.8466 43.4688 17.9072 43.4688 19.1193C43.4688 20.3125 43.6203 21.3636 43.9233 22.2727C44.2358 23.1818 44.6856 23.892 45.2727 24.4034C45.8693 24.9148 46.5985 25.1705 47.4602 25.1705ZM61.9986 30V0.90909H68.9446V11.9176H69.0866C69.3707 11.2547 69.7732 10.6155 70.294 10C70.8243 9.38447 71.4967 8.88258 72.3111 8.49432C73.1349 8.09659 74.1198 7.89773 75.2656 7.89773C76.7808 7.89773 78.1965 8.29545 79.5128 9.09091C80.8385 9.88636 81.9086 11.1127 82.723 12.7699C83.5374 14.4271 83.9446 16.5388 83.9446 19.1051C83.9446 21.5767 83.5516 23.6458 82.7656 25.3125C81.9891 26.9792 80.938 28.2292 79.6122 29.0625C78.2959 29.8958 76.8329 30.3125 75.223 30.3125C74.1245 30.3125 73.1728 30.1326 72.3679 29.7727C71.563 29.4129 70.8859 28.9394 70.3366 28.3523C69.7969 27.7652 69.3802 27.1354 69.0866 26.4631H68.8736V30H61.9986ZM68.8026 19.0909C68.8026 20.2652 68.9588 21.2879 69.2713 22.1591C69.5933 23.0303 70.0526 23.7074 70.6491 24.1903C71.2552 24.6638 71.9796 24.9006 72.8224 24.9006C73.6747 24.9006 74.3991 24.6638 74.9957 24.1903C75.5923 23.7074 76.0421 23.0303 76.3452 22.1591C76.6577 21.2879 76.8139 20.2652 76.8139 19.0909C76.8139 17.9167 76.6577 16.8987 76.3452 16.0369C76.0421 15.1752 75.5923 14.5076 74.9957 14.0341C74.4086 13.5606 73.6842 13.3239 72.8224 13.3239C71.9702 13.3239 71.2457 13.5559 70.6491 14.0199C70.0526 14.4839 69.5933 15.1468 69.2713 16.0085C68.9588 16.8703 68.8026 17.8977 68.8026 19.0909ZM93.7351 30.3693C92.343 30.3693 91.1072 30.1373 90.0277 29.6733C88.9576 29.1998 88.1101 28.4896 87.4851 27.5426C86.8696 26.5862 86.5618 25.3883 86.5618 23.9489C86.5618 22.7367 86.7749 21.714 87.201 20.8807C87.6271 20.0473 88.2143 19.3703 88.9624 18.8494C89.7105 18.3286 90.5722 17.9356 91.5476 17.6705C92.523 17.3958 93.5646 17.2112 94.6726 17.1165C95.9131 17.0028 96.9122 16.8845 97.6697 16.7614C98.4273 16.6288 98.9766 16.4441 99.3175 16.2074C99.6679 15.9612 99.843 15.6155 99.843 15.1705V15.0994C99.843 14.3703 99.5921 13.8068 99.0902 13.4091C98.5883 13.0114 97.9112 12.8125 97.0589 12.8125C96.1404 12.8125 95.4018 13.0114 94.843 13.4091C94.2843 13.8068 93.9292 14.3561 93.7777 15.0568L87.3714 14.8295C87.5608 13.5038 88.0485 12.3201 88.8345 11.2784C89.63 10.2273 90.719 9.40341 92.1016 8.80682C93.4936 8.20076 95.165 7.89773 97.1158 7.89773C98.5078 7.89773 99.791 8.06345 100.965 8.39489C102.139 8.71686 103.162 9.19034 104.033 9.81534C104.905 10.4309 105.577 11.1884 106.05 12.0881C106.533 12.9877 106.775 14.0152 106.775 15.1705V30H100.241V26.9602H100.07C99.6821 27.6989 99.1849 28.3239 98.5788 28.8352C97.9822 29.3466 97.2768 29.7301 96.4624 29.9858C95.6574 30.2415 94.7483 30.3693 93.7351 30.3693ZM95.88 25.8239C96.6281 25.8239 97.3004 25.6723 97.897 25.3693C98.5031 25.0663 98.986 24.6496 99.3459 24.1193C99.7057 23.5795 99.8857 22.9545 99.8857 22.2443V20.1705C99.6868 20.2746 99.4453 20.3693 99.1612 20.4545C98.8866 20.5398 98.5836 20.6203 98.2521 20.696C97.9207 20.7718 97.5798 20.8381 97.2294 20.8949C96.879 20.9517 96.5429 21.0038 96.2209 21.0511C95.5675 21.1553 95.0088 21.3163 94.5447 21.5341C94.0902 21.7519 93.7398 22.036 93.4936 22.3864C93.2569 22.7273 93.1385 23.1345 93.1385 23.608C93.1385 24.3277 93.3942 24.8769 93.9055 25.2557C94.4264 25.6345 95.0845 25.8239 95.88 25.8239ZM111.022 30V8.18182H117.769V12.1591H117.996C118.394 10.7197 119.043 9.64962 119.942 8.94886C120.842 8.23864 121.888 7.88352 123.082 7.88352C123.404 7.88352 123.735 7.9072 124.076 7.95455C124.417 7.99242 124.734 8.05398 125.028 8.1392V14.1761C124.696 14.0625 124.261 13.9725 123.721 13.9062C123.191 13.84 122.717 13.8068 122.3 13.8068C121.477 13.8068 120.733 13.9915 120.07 14.3608C119.417 14.7206 118.901 15.2273 118.522 15.8807C118.153 16.5246 117.968 17.2822 117.968 18.1534V30H111.022ZM141.189 8.18182V13.2955H127.425V8.18182H141.189ZM130.308 2.95455H137.254V23.1392C137.254 23.5653 137.321 23.911 137.453 24.1761C137.595 24.4318 137.799 24.6165 138.064 24.7301C138.329 24.8343 138.646 24.8864 139.016 24.8864C139.281 24.8864 139.56 24.8627 139.854 24.8153C140.157 24.7585 140.384 24.7112 140.536 24.6733L141.587 29.6875C141.255 29.7822 140.786 29.9006 140.18 30.0426C139.584 30.1847 138.869 30.2746 138.036 30.3125C136.407 30.3883 135.01 30.1989 133.845 29.7443C132.69 29.2803 131.804 28.5606 131.189 27.5852C130.583 26.6098 130.289 25.3835 130.308 23.9062V2.95455ZM154.697 30.4119C152.415 30.4119 150.446 29.9621 148.788 29.0625C147.141 28.1534 145.872 26.8608 144.982 25.1847C144.101 23.4991 143.661 21.4962 143.661 19.1761C143.661 16.9223 144.106 14.9527 144.996 13.267C145.886 11.572 147.141 10.2557 148.76 9.31818C150.379 8.37121 152.287 7.89773 154.484 7.89773C156.037 7.89773 157.458 8.1392 158.746 8.62216C160.034 9.10511 161.146 9.82008 162.084 10.767C163.021 11.714 163.75 12.8835 164.271 14.2756C164.792 15.6581 165.053 17.2443 165.053 19.0341V20.767H146.089V16.733H158.589C158.58 15.9943 158.405 15.3362 158.064 14.7585C157.723 14.1809 157.254 13.7311 156.658 13.4091C156.071 13.0777 155.393 12.9119 154.626 12.9119C153.85 12.9119 153.154 13.0871 152.538 13.4375C151.923 13.7784 151.435 14.2472 151.075 14.8438C150.715 15.4309 150.526 16.0985 150.507 16.8466V20.9517C150.507 21.8419 150.682 22.6231 151.033 23.2955C151.383 23.9583 151.88 24.4744 152.524 24.8438C153.168 25.2131 153.935 25.3977 154.825 25.3977C155.441 25.3977 156 25.3125 156.501 25.142C157.003 24.9716 157.434 24.7206 157.794 24.3892C158.154 24.0578 158.424 23.6506 158.604 23.1676L164.982 23.3523C164.716 24.7822 164.134 26.0275 163.234 27.0881C162.344 28.1392 161.175 28.9583 159.726 29.5455C158.277 30.1231 156.601 30.4119 154.697 30.4119ZM168.6 30V8.18182H175.347V12.1591H175.575C175.972 10.7197 176.621 9.64962 177.521 8.94886C178.42 8.23864 179.467 7.88352 180.66 7.88352C180.982 7.88352 181.313 7.9072 181.654 7.95455C181.995 7.99242 182.312 8.05398 182.606 8.1392V14.1761C182.274 14.0625 181.839 13.9725 181.299 13.9062C180.769 13.84 180.295 13.8068 179.879 13.8068C179.055 13.8068 178.311 13.9915 177.648 14.3608C176.995 14.7206 176.479 15.2273 176.1 15.8807C175.731 16.5246 175.546 17.2822 175.546 18.1534V30H168.6Z" fill="#F24500"/>
</svg>
